<svg width="169" height="125" viewBox="0 0 169 125" fill="none" xmlns="http://www.w3.org/2000/svg">
<path d="M32.8912 19.0933C32.5459 19.428 32.3872 19.912 32.4659 20.3867L33.6512 26.9467C33.7512 27.5027 33.5165 28.0653 33.0512 28.3867C32.5952 28.72 31.9885 28.76 31.4912 28.4933L25.5858 25.4133C25.3805 25.304 25.1525 25.2453 24.9192 25.2387H24.5578C24.4325 25.2573 24.3099 25.2973 24.1979 25.3587L18.2912 28.4533C17.9992 28.6 17.6685 28.652 17.3445 28.6C16.5552 28.4507 16.0285 27.6987 16.1579 26.9053L17.3445 20.3453C17.4232 19.8667 17.2645 19.38 16.9192 19.04L12.1045 14.3733C11.7019 13.9827 11.5619 13.396 11.7459 12.8667C11.9245 12.3387 12.3805 11.9533 12.9312 11.8667L19.5578 10.9053C20.0619 10.8533 20.5045 10.5467 20.7312 10.0933L23.6512 4.10666C23.7205 3.97333 23.8099 3.85066 23.9179 3.74666L24.0378 3.65333C24.1005 3.58399 24.1725 3.52666 24.2525 3.47999L24.3979 3.42666L24.6245 3.33333H25.1859C25.6872 3.38533 26.1285 3.68533 26.3592 4.13333L29.3179 10.0933C29.5312 10.5293 29.9459 10.832 30.4245 10.9053L37.0512 11.8667C37.6112 11.9467 38.0792 12.3333 38.2645 12.8667C38.4392 13.4013 38.2885 13.988 37.8779 14.3733L32.8912 19.0933Z" fill="#FD853A"/>
<path d="M64.8912 19.0933C64.5459 19.428 64.3872 19.912 64.4659 20.3867L65.6512 26.9467C65.7512 27.5027 65.5165 28.0653 65.0512 28.3867C64.5952 28.72 63.9885 28.76 63.4912 28.4933L57.5858 25.4133C57.3805 25.304 57.1525 25.2453 56.9192 25.2387H56.5578C56.4325 25.2573 56.3099 25.2973 56.1979 25.3587L50.2912 28.4533C49.9992 28.6 49.6685 28.652 49.3445 28.6C48.5552 28.4507 48.0285 27.6987 48.1579 26.9053L49.3445 20.3453C49.4232 19.8667 49.2645 19.38 48.9192 19.04L44.1045 14.3733C43.7019 13.9827 43.5619 13.396 43.7459 12.8667C43.9245 12.3387 44.3805 11.9533 44.9312 11.8667L51.5578 10.9053C52.0619 10.8533 52.5045 10.5467 52.7312 10.0933L55.6512 4.10666C55.7205 3.97333 55.8099 3.85066 55.9179 3.74666L56.0378 3.65333C56.1005 3.58399 56.1725 3.52666 56.2525 3.47999L56.3979 3.42666L56.6245 3.33333H57.1859C57.6872 3.38533 58.1285 3.68533 58.3592 4.13333L61.3179 10.0933C61.5312 10.5293 61.9459 10.832 62.4245 10.9053L69.0512 11.8667C69.6112 11.9467 70.0792 12.3333 70.2645 12.8667C70.4392 13.4013 70.2885 13.988 69.8779 14.3733L64.8912 19.0933Z" fill="#FD853A"/>
<path d="M96.8912 19.0933C96.5459 19.428 96.3872 19.912 96.4659 20.3867L97.6512 26.9467C97.7512 27.5027 97.5165 28.0653 97.0512 28.3867C96.5952 28.72 95.9885 28.76 95.4912 28.4933L89.5858 25.4133C89.3805 25.304 89.1525 25.2453 88.9192 25.2387H88.5578C88.4325 25.2573 88.3099 25.2973 88.1979 25.3587L82.2912 28.4533C81.9992 28.6 81.6685 28.652 81.3445 28.6C80.5552 28.4507 80.0285 27.6987 80.1579 26.9053L81.3445 20.3453C81.4232 19.8667 81.2645 19.38 80.9192 19.04L76.1045 14.3733C75.7019 13.9827 75.5619 13.396 75.7459 12.8667C75.9245 12.3387 76.3805 11.9533 76.9312 11.8667L83.5578 10.9053C84.0619 10.8533 84.5045 10.5467 84.7312 10.0933L87.6512 4.10666C87.7205 3.97333 87.8099 3.85066 87.9179 3.74666L88.0378 3.65333C88.1005 3.58399 88.1725 3.52666 88.2525 3.47999L88.3979 3.42666L88.6245 3.33333H89.1859C89.6872 3.38533 90.1285 3.68533 90.3592 4.13333L93.3179 10.0933C93.5312 10.5293 93.9459 10.832 94.4245 10.9053L101.051 11.8667C101.611 11.9467 102.079 12.3333 102.265 12.8667C102.439 13.4013 102.289 13.988 101.878 14.3733L96.8912 19.0933Z" fill="#FD853A"/>
<path d="M128.891 19.0933C128.546 19.428 128.387 19.912 128.466 20.3867L129.651 26.9467C129.751 27.5027 129.517 28.0653 129.051 28.3867C128.595 28.72 127.989 28.76 127.491 28.4933L121.586 25.4133C121.381 25.304 121.153 25.2453 120.919 25.2387H120.558C120.433 25.2573 120.31 25.2973 120.198 25.3587L114.291 28.4533C113.999 28.6 113.669 28.652 113.345 28.6C112.555 28.4507 112.029 27.6987 112.158 26.9053L113.345 20.3453C113.423 19.8667 113.265 19.38 112.919 19.04L108.105 14.3733C107.702 13.9827 107.562 13.396 107.746 12.8667C107.925 12.3387 108.381 11.9533 108.931 11.8667L115.558 10.9053C116.062 10.8533 116.505 10.5467 116.731 10.0933L119.651 4.10666C119.721 3.97333 119.81 3.85066 119.918 3.74666L120.038 3.65333C120.101 3.58399 120.173 3.52666 120.253 3.47999L120.398 3.42666L120.625 3.33333H121.186C121.687 3.38533 122.129 3.68533 122.359 4.13333L125.318 10.0933C125.531 10.5293 125.946 10.832 126.425 10.9053L133.051 11.8667C133.611 11.9467 134.079 12.3333 134.265 12.8667C134.439 13.4013 134.289 13.988 133.878 14.3733L128.891 19.0933Z" fill="#FD853A"/>
<path d="M160.891 19.0933C160.546 19.428 160.387 19.912 160.466 20.3867L161.651 26.9467C161.751 27.5027 161.517 28.0653 161.051 28.3867C160.595 28.72 159.989 28.76 159.491 28.4933L153.586 25.4133C153.381 25.304 153.153 25.2453 152.919 25.2387H152.558C152.433 25.2573 152.31 25.2973 152.198 25.3587L146.291 28.4533C145.999 28.6 145.669 28.652 145.345 28.6C144.555 28.4507 144.029 27.6987 144.158 26.9053L145.345 20.3453C145.423 19.8667 145.265 19.38 144.919 19.04L140.105 14.3733C139.702 13.9827 139.562 13.396 139.746 12.8667C139.925 12.3387 140.381 11.9533 140.931 11.8667L147.558 10.9053C148.062 10.8533 148.505 10.5467 148.731 10.0933L151.651 4.10666C151.721 3.97333 151.81 3.85066 151.918 3.74666L152.038 3.65333C152.101 3.58399 152.173 3.52666 152.253 3.47999L152.398 3.42666L152.625 3.33333H153.186C153.687 3.38533 154.129 3.68533 154.359 4.13333L157.318 10.0933C157.531 10.5293 157.946 10.832 158.425 10.9053L165.051 11.8667C165.611 11.9467 166.079 12.3333 166.265 12.8667C166.439 13.4013 166.289 13.988 165.878 14.3733L160.891 19.0933Z" fill="#FD853A"/>
<path d="M6.41905 93V65.834H2.28305L3.83405 60.1H12.153V93H6.41905ZM29.4292 93.611C27.5179 93.611 25.7789 93.1723 24.2122 92.295C22.6456 91.402 21.2904 90.1722 20.1467 88.6055C19.0187 87.0388 18.1492 85.2293 17.5382 83.177C16.9272 81.109 16.6217 78.9 16.6217 76.55C16.6217 74.2 16.9272 71.9988 17.5382 69.9465C18.1492 67.8785 19.0187 66.0612 20.1467 64.4945C21.2904 62.9278 22.6456 61.7058 24.2122 60.8285C25.7789 59.9355 27.5179 59.489 29.4292 59.489C31.3406 59.489 33.0796 59.9355 34.6462 60.8285C36.2129 61.7058 37.5524 62.9278 38.6647 64.4945C39.7927 66.0612 40.6622 67.8785 41.2732 69.9465C41.8999 71.9988 42.2132 74.2 42.2132 76.55C42.2132 78.9 41.8999 81.109 41.2732 83.177C40.6622 85.2293 39.7927 87.0388 38.6647 88.6055C37.5524 90.1722 36.2129 91.402 34.6462 92.295C33.0796 93.1723 31.3406 93.611 29.4292 93.611ZM29.4292 87.877C31.1056 87.877 32.4921 87.3443 33.5887 86.279C34.6854 85.2137 35.5001 83.8193 36.0327 82.096C36.5654 80.3727 36.8317 78.524 36.8317 76.55C36.8317 74.4663 36.5497 72.5707 35.9857 70.863C35.4217 69.1397 34.5914 67.7688 33.4947 66.7505C32.3981 65.7322 31.0429 65.223 29.4292 65.223C28.1602 65.223 27.0557 65.5363 26.1157 66.163C25.1914 66.774 24.4237 67.6122 23.8127 68.6775C23.2017 69.7428 22.7474 70.957 22.4497 72.32C22.1521 73.6673 22.0032 75.0773 22.0032 76.55C22.0032 78.5083 22.2696 80.357 22.8022 82.096C23.3506 83.8193 24.1731 85.2137 25.2697 86.279C26.3821 87.3443 27.7686 87.877 29.4292 87.877ZM76.4869 60.1H83.2549L71.9514 78.1715V93H66.2174V78.1715L54.9139 60.1H61.6819L69.0844 71.9205L76.4869 60.1ZM92.121 93.611C89.959 93.611 87.985 93.0548 86.199 91.9425C84.4286 90.8302 83.0108 89.334 81.9455 87.454C80.8958 85.574 80.371 83.4982 80.371 81.2265C80.371 79.5188 80.6765 77.9208 81.2875 76.4325C81.8985 74.9285 82.7366 73.6125 83.802 72.4845C84.883 71.3408 86.1363 70.4478 87.562 69.8055C88.9876 69.1632 90.5073 68.842 92.121 68.842C93.954 68.842 95.6303 69.2337 97.15 70.017C98.6853 70.7847 99.9856 71.8422 101.051 73.1895C102.116 74.5368 102.892 76.0722 103.377 77.7955C103.863 79.5188 103.973 81.3205 103.706 83.2005H86.528C86.7473 84.0778 87.1076 84.869 87.609 85.574C88.1103 86.2633 88.7448 86.8195 89.5125 87.2425C90.2801 87.6498 91.1496 87.8613 92.121 87.877C93.1236 87.8927 94.0323 87.6577 94.847 87.172C95.6773 86.6707 96.3666 85.997 96.915 85.151L102.766 86.514C101.811 88.5977 100.385 90.3053 98.4895 91.637C96.5938 92.953 94.471 93.611 92.121 93.611ZM86.34 78.9H97.902C97.7296 77.96 97.3615 77.114 96.7975 76.362C96.2491 75.5943 95.5676 74.9833 94.753 74.529C93.9383 74.0747 93.061 73.8475 92.121 73.8475C91.181 73.8475 90.3115 74.0747 89.5125 74.529C88.7135 74.9677 88.032 75.5708 87.468 76.3385C86.9196 77.0905 86.5436 77.9443 86.34 78.9ZM124.636 69.5H130.37V93H124.636L124.377 90.086C123.735 91.1357 122.881 91.9895 121.816 92.6475C120.766 93.2898 119.521 93.611 118.079 93.611C116.34 93.611 114.711 93.282 113.191 92.624C111.672 91.966 110.332 91.0573 109.173 89.898C108.029 88.7387 107.128 87.3992 106.47 85.8795C105.828 84.3598 105.507 82.7305 105.507 80.9915C105.507 79.3152 105.812 77.7407 106.423 76.268C107.05 74.7953 107.919 73.5028 109.032 72.3905C110.144 71.2782 111.429 70.4087 112.886 69.782C114.343 69.1553 115.909 68.842 117.586 68.842C119.137 68.842 120.523 69.1867 121.745 69.876C122.983 70.5653 124.033 71.4427 124.894 72.508L124.636 69.5ZM117.938 88.0885C119.16 88.0885 120.241 87.783 121.181 87.172C122.121 86.561 122.858 85.7385 123.39 84.7045C123.923 83.6548 124.189 82.5033 124.189 81.25C124.189 79.981 123.923 78.8295 123.39 77.7955C122.858 76.7458 122.113 75.9155 121.158 75.3045C120.218 74.6935 119.145 74.388 117.938 74.388C116.732 74.388 115.627 74.7013 114.625 75.328C113.638 75.939 112.847 76.7615 112.251 77.7955C111.672 78.8295 111.382 79.981 111.382 81.25C111.382 82.519 111.679 83.6705 112.275 84.7045C112.87 85.7385 113.661 86.561 114.648 87.172C115.651 87.783 116.748 88.0885 117.938 88.0885ZM134.371 93L134.348 69.5H140.082L140.105 71.5915C140.904 70.7455 141.86 70.0797 142.972 69.594C144.084 69.0927 145.283 68.842 146.568 68.842C147.429 68.842 148.291 68.9673 149.153 69.218L146.897 74.999C146.301 74.764 145.706 74.6465 145.111 74.6465C144.186 74.6465 143.34 74.8737 142.573 75.328C141.821 75.7667 141.217 76.3698 140.763 77.1375C140.324 77.8895 140.105 78.7277 140.105 79.652V93H134.371ZM157.925 93.423C156.703 93.3447 155.52 93.1018 154.376 92.6945C153.248 92.2715 152.245 91.6997 151.368 90.979C150.491 90.2583 149.817 89.3967 149.347 88.394L154.188 86.326C154.376 86.6393 154.682 86.9762 155.105 87.3365C155.528 87.6812 156.029 87.971 156.609 88.206C157.204 88.441 157.854 88.5585 158.559 88.5585C159.154 88.5585 159.718 88.4802 160.251 88.3235C160.799 88.1512 161.238 87.8927 161.567 87.548C161.912 87.2033 162.084 86.7568 162.084 86.2085C162.084 85.6288 161.88 85.1823 161.473 84.869C161.081 84.54 160.58 84.2972 159.969 84.1405C159.374 83.9682 158.794 83.8115 158.23 83.6705C156.742 83.3728 155.355 82.9107 154.071 82.284C152.802 81.6573 151.775 80.8505 150.992 79.8635C150.224 78.8608 149.841 77.6545 149.841 76.2445C149.841 74.6935 150.248 73.354 151.063 72.226C151.893 71.098 152.966 70.2285 154.282 69.6175C155.614 69.0065 157.047 68.701 158.583 68.701C160.447 68.701 162.155 69.0927 163.706 69.876C165.272 70.6437 166.51 71.7325 167.419 73.1425L162.883 75.8215C162.664 75.4455 162.358 75.1008 161.967 74.7875C161.575 74.4585 161.128 74.1922 160.627 73.9885C160.126 73.7692 159.601 73.6438 159.053 73.6125C158.348 73.5812 157.705 73.6438 157.126 73.8005C156.546 73.9572 156.076 74.2235 155.716 74.5995C155.371 74.9755 155.199 75.4768 155.199 76.1035C155.199 76.6988 155.434 77.1453 155.904 77.443C156.374 77.725 156.938 77.9443 157.596 78.101C158.269 78.2577 158.912 78.43 159.523 78.618C160.901 79.0723 162.194 79.6285 163.4 80.2865C164.622 80.9445 165.601 81.7513 166.338 82.707C167.074 83.6627 167.426 84.8063 167.395 86.138C167.395 87.6577 166.941 88.9893 166.032 90.133C165.123 91.261 163.948 92.1227 162.507 92.718C161.081 93.3133 159.554 93.5483 157.925 93.423Z" fill="#171717"/>
<path d="M77.9276 119.28H85.2276V121H76.0876V107.2H85.1276V108.92H77.9276V113.2H84.4676V114.92H77.9276V119.28ZM96.7449 121H94.6249L91.6049 117.02L88.6049 121H86.5049L90.4449 115.88L86.5649 110.8H88.6649L91.6249 114.72L94.5849 110.8H96.6849L92.8049 115.88L96.7449 121ZM104.152 110.56C107.072 110.56 109.272 112.86 109.272 115.9C109.272 118.94 107.072 121.24 104.152 121.24C102.452 121.24 101.052 120.44 100.192 119.16V124.8H98.4721V110.8H100.192V112.64C101.052 111.36 102.452 110.56 104.152 110.56ZM103.832 119.58C105.932 119.58 107.492 118 107.492 115.9C107.492 113.8 105.932 112.22 103.832 112.22C101.752 112.22 100.192 113.8 100.192 115.9C100.192 118 101.752 119.58 103.832 119.58ZM121.278 115.9C121.278 116.14 121.258 116.42 121.238 116.66H112.458C112.798 118.44 114.258 119.66 116.238 119.66C117.738 119.66 119.018 118.94 119.678 118L120.858 119.02C119.838 120.38 118.158 121.24 116.178 121.24C112.978 121.24 110.598 118.92 110.598 115.86C110.598 112.84 112.898 110.56 115.958 110.56C118.998 110.56 121.278 112.84 121.278 115.9ZM115.938 112.14C114.158 112.14 112.758 113.36 112.438 115.1H119.458C119.138 113.34 117.738 112.14 115.938 112.14ZM128.385 110.64H128.725V112.42H128.385C126.225 112.42 124.905 113.78 124.905 115.9V121H123.185V110.8H124.905V112.56C125.665 111.34 126.865 110.64 128.385 110.64ZM131.147 108.76C130.487 108.76 129.987 108.26 129.987 107.62C129.987 106.96 130.487 106.48 131.147 106.48C131.787 106.48 132.287 106.96 132.287 107.62C132.287 108.26 131.787 108.76 131.147 108.76ZM130.287 121V110.8H132.007V121H130.287ZM140.016 110.56C142.496 110.56 144.156 112.2 144.156 114.7V121H142.436V115.24C142.436 113.42 141.276 112.22 139.456 112.22C137.576 112.22 136.336 113.44 136.336 115.28V121H134.616V110.8H136.336V112.36C137.136 111.2 138.416 110.56 140.016 110.56ZM151.42 121.24C148.32 121.24 145.98 118.94 145.98 115.9C145.98 112.86 148.32 110.56 151.42 110.56C153.44 110.56 155.16 111.56 156.08 113.12L154.58 114.02C153.96 112.94 152.8 112.22 151.42 112.22C149.32 112.22 147.76 113.8 147.76 115.9C147.76 118 149.32 119.58 151.42 119.58C152.8 119.58 153.96 118.86 154.58 117.78L156.08 118.68C155.16 120.24 153.44 121.24 151.42 121.24ZM167.786 115.9C167.786 116.14 167.766 116.42 167.746 116.66H158.966C159.306 118.44 160.766 119.66 162.746 119.66C164.246 119.66 165.526 118.94 166.186 118L167.366 119.02C166.346 120.38 164.666 121.24 162.686 121.24C159.486 121.24 157.106 118.92 157.106 115.86C157.106 112.84 159.406 110.56 162.466 110.56C165.506 110.56 167.786 112.84 167.786 115.9ZM162.446 112.14C160.666 112.14 159.266 113.36 158.946 115.1H165.966C165.646 113.34 164.246 112.14 162.446 112.14Z" fill="#171717"/>
</svg>
