<svg width="26" height="22" viewBox="0 0 26 22" fill="none" xmlns="http://www.w3.org/2000/svg">
<path d="M1.41667 9.20833C0.634263 9.20833 -4.98633e-07 9.8426 -4.64434e-07 10.625C-4.30234e-07 11.4074 0.634263 12.0417 1.41667 12.0417L21.3715 12.0417L14.5816 18.8316C14.0284 19.3848 14.0284 20.2818 14.5816 20.8351C15.1348 21.3883 16.0318 21.3883 16.5851 20.8351L24.7917 12.6285C25.8981 11.522 25.8982 9.72802 24.7917 8.62153L16.5851 0.414932C16.0318 -0.138312 15.1348 -0.138312 14.5816 0.414932C14.0284 0.968175 14.0284 1.86516 14.5816 2.4184L21.3715 9.20833L1.41667 9.20833Z" fill="#FD853A"/>
</svg>
