<svg width="111" height="40" viewBox="0 0 111 40" fill="none" xmlns="http://www.w3.org/2000/svg">
<path d="M9.38 3.34H10.962V13H9.688V5.286L6.412 10.97H5.698L2.422 5.286V13H1.134V3.34H2.758L6.062 9.08L9.38 3.34ZM18.8196 5.86H20.0236V13H18.8196V11.712C18.2176 12.608 17.2376 13.168 16.0476 13.168C14.0036 13.168 12.4776 11.558 12.4776 9.43C12.4776 7.302 14.0036 5.692 16.0476 5.692C17.2376 5.692 18.2176 6.252 18.8196 7.148V5.86ZM16.2716 12.006C17.7276 12.006 18.8196 10.9 18.8196 9.43C18.8196 7.96 17.7276 6.854 16.2716 6.854C14.8016 6.854 13.7096 7.96 13.7096 9.43C13.7096 10.9 14.8016 12.006 16.2716 12.006ZM27.7698 2.92H28.9738V13H27.7698V11.712C27.1678 12.608 26.1878 13.168 24.9978 13.168C22.9538 13.168 21.4278 11.558 21.4278 9.43C21.4278 7.302 22.9538 5.692 24.9978 5.692C26.1878 5.692 27.1678 6.252 27.7698 7.148V2.92ZM25.2218 12.006C26.6778 12.006 27.7698 10.9 27.7698 9.43C27.7698 7.96 26.6778 6.854 25.2218 6.854C23.7518 6.854 22.6598 7.96 22.6598 9.43C22.6598 10.9 23.7518 12.006 25.2218 12.006ZM37.8259 9.43C37.8259 9.598 37.8119 9.794 37.7979 9.962H31.6519C31.8899 11.208 32.9119 12.062 34.2979 12.062C35.3479 12.062 36.2439 11.558 36.7059 10.9L37.5319 11.614C36.8179 12.566 35.6419 13.168 34.2559 13.168C32.0159 13.168 30.3499 11.544 30.3499 9.402C30.3499 7.288 31.9599 5.692 34.1019 5.692C36.2299 5.692 37.8259 7.288 37.8259 9.43ZM34.0879 6.798C32.8419 6.798 31.8619 7.652 31.6379 8.87H36.5519C36.3279 7.638 35.3479 6.798 34.0879 6.798ZM46.3855 5.692C48.4295 5.692 49.9695 7.302 49.9695 9.43C49.9695 11.558 48.4295 13.168 46.3855 13.168C45.1955 13.168 44.2155 12.608 43.6135 11.712V13H42.4095V2.92H43.6135V7.148C44.2155 6.252 45.1955 5.692 46.3855 5.692ZM46.1615 12.006C47.6315 12.006 48.7235 10.9 48.7235 9.43C48.7235 7.96 47.6315 6.854 46.1615 6.854C44.7055 6.854 43.6135 7.96 43.6135 9.43C43.6135 10.9 44.7055 12.006 46.1615 12.006ZM56.3255 5.86H57.6695L53.8195 14.512C53.4555 15.352 52.7555 15.828 51.9855 15.828C51.4255 15.828 50.7675 15.562 50.3475 15.142L50.8515 14.218C51.0895 14.484 51.4395 14.666 51.8035 14.666C52.1675 14.666 52.4895 14.484 52.7135 14.022L53.2315 12.958L50.1235 5.86H51.5095L53.9175 11.558L56.3255 5.86Z" fill="#98A2B3"/>
<path d="M2.76 33.24C1.88 33.24 1.12 33.06 0.52 32.8V30.16C1.06 30.4 1.76 30.58 2.46 30.58C3.88 30.58 4.74 29.82 4.74 28.48V19.2H7.5V28.62C7.5 31.52 5.6 33.24 2.76 33.24ZM17.2928 22.8H19.8928V33H17.2928V31.78C16.4728 32.68 15.3328 33.24 13.9728 33.24C11.1328 33.24 8.99281 30.94 8.99281 27.9C8.99281 24.86 11.1328 22.56 13.9728 22.56C15.3328 22.56 16.4728 23.12 17.2928 24.02V22.8ZM14.4728 30.72C16.0928 30.72 17.2928 29.5 17.2928 27.9C17.2928 26.3 16.0928 25.08 14.4728 25.08C12.8728 25.08 11.6728 26.3 11.6728 27.9C11.6728 29.5 12.8728 30.72 14.4728 30.72ZM29.1858 22.8H32.0858L27.0458 34.78C26.4858 36.18 25.2858 37.04 23.9458 37.04C23.0258 37.04 21.9458 36.64 21.2658 36.02L22.2658 33.98C22.5858 34.32 23.0658 34.52 23.5058 34.52C23.9858 34.52 24.4058 34.3 24.6658 33.72L25.0858 32.84L20.9258 22.8H23.8858L26.5458 29.74L29.1858 22.8ZM42.707 27.92C42.707 28.2 42.687 28.56 42.647 28.84H34.747C35.107 30.12 36.187 30.94 37.667 30.94C38.907 30.94 39.927 30.36 40.467 29.68L42.207 31.2C41.147 32.46 39.507 33.24 37.587 33.24C34.347 33.24 31.927 30.92 31.927 27.86C31.927 24.84 34.267 22.56 37.347 22.56C40.407 22.56 42.707 24.84 42.707 27.92ZM37.327 24.84C36.047 24.84 35.047 25.68 34.727 26.94H39.927C39.607 25.66 38.587 24.84 37.327 24.84ZM47.7397 33.24C45.8397 33.24 44.4197 32.52 43.4397 31.68L44.6997 29.96C45.4797 30.64 46.4597 31.1 47.6797 31.1C48.7197 31.1 49.4797 30.76 49.4797 30.14C49.4797 29.46 48.5997 29.22 47.4797 28.96C45.8597 28.6 43.7597 28.1 43.7597 25.78C43.7597 23.62 45.6597 22.56 47.9197 22.56C49.6597 22.56 50.9597 23.18 51.8797 23.9L50.6197 25.64C49.8797 25.08 49.0197 24.7 47.9797 24.7C47.0997 24.7 46.3797 24.98 46.3797 25.58C46.3797 26.26 47.2397 26.48 48.3797 26.72C49.9997 27.08 52.0997 27.58 52.0997 29.9C52.0997 32.06 50.1797 33.24 47.7397 33.24ZM59.3886 22.56C61.7886 22.56 63.3686 24.12 63.3686 26.52V33H60.7686V27.36C60.7686 25.98 59.8886 25.08 58.5486 25.08C57.1086 25.08 56.1486 26 56.1486 27.4V33H53.5486V18.6H56.1486V24C56.9486 23.06 58.0686 22.56 59.3886 22.56ZM75.8278 19.2C78.5078 19.2 80.5678 21.18 80.5678 23.8C80.5678 26.42 78.5078 28.4 75.8278 28.4H72.5678V33H69.8078V19.2H75.8278ZM75.7678 25.8C76.8878 25.8 77.7278 24.94 77.7278 23.8C77.7278 22.66 76.8878 21.8 75.7678 21.8H72.5678V25.8H75.7678ZM89.2553 22.8H91.8553V33H89.2553V31.78C88.4353 32.68 87.2953 33.24 85.9353 33.24C83.0953 33.24 80.9553 30.94 80.9553 27.9C80.9553 24.86 83.0953 22.56 85.9353 22.56C87.2953 22.56 88.4353 23.12 89.2553 24.02V22.8ZM86.4353 30.72C88.0553 30.72 89.2553 29.5 89.2553 27.9C89.2553 26.3 88.0553 25.08 86.4353 25.08C84.8353 25.08 83.6353 26.3 83.6353 27.9C83.6353 29.5 84.8353 30.72 86.4353 30.72ZM100.308 25.18H97.5683V29.42C97.5683 30.28 98.0483 30.72 98.9683 30.72C99.4883 30.72 99.9283 30.56 100.308 30.38V32.8C99.7483 33.1 99.1683 33.24 98.4083 33.24C96.0683 33.24 94.9683 31.88 94.9683 29.84V25.18H93.3483V22.8H94.9683V20.22H97.5683V22.8H100.308V25.18ZM103.231 21.3C102.311 21.3 101.591 20.6 101.591 19.68C101.591 18.76 102.311 18.06 103.231 18.06C104.151 18.06 104.871 18.76 104.871 19.68C104.871 20.6 104.151 21.3 103.231 21.3ZM101.931 33V22.8H104.531V33H101.931ZM106.71 33V18.6H109.31V33H106.71Z" fill="white"/>
</svg>
