<svg width="83" height="20" viewBox="0 0 83 20" fill="none" xmlns="http://www.w3.org/2000/svg">
<g clip-path="url(#clip0_19_12048)">
<path d="M0 15.9906L2.38046 13.3938C3.42546 14.7162 4.66067 15.4308 5.87012 15.432C7.73027 15.432 8.68769 14.6111 8.68927 12.0719L8.69561 3.6912L1.55342 3.68396L1.5562 0.165649L12.8439 0.174503L12.8348 12.4172C12.832 16.051 11.0642 19.057 6.00486 19.0542C3.97589 19.053 1.59305 18.2481 0 15.9906Z" fill="white"/>
<path d="M15.844 9.70423C15.8488 3.55936 19.6879 -0.00402074 24.5868 3.4047e-06C26.905 3.4047e-06 28.806 1.12435 30.042 2.36177L27.761 4.95534C26.8892 4.13521 25.9056 3.62375 24.584 3.62254C21.988 3.62254 20.0906 5.85674 20.0882 9.56942C20.085 13.3795 21.9788 15.592 24.7378 15.596C26.0566 15.596 27.1456 14.9408 28.0336 13.9622L30.3099 16.5014C28.8171 18.2897 26.7699 19.2217 24.3082 19.2197C19.7624 19.2141 15.8392 15.9582 15.844 9.70423Z" fill="white"/>
<path d="M47.7503 18.8839L43.6203 11.4642C45.5732 10.5704 46.8805 8.84406 46.8825 6.12093C46.886 1.71127 43.6991 0.343864 39.8251 0.340644L33.3237 0.335815L33.3098 18.8714L37.4569 18.8746L37.4617 12.207H39.6357L43.1202 18.8771L47.7503 18.8839ZM37.468 3.66861H39.4855C41.6603 3.66861 42.8265 4.28632 42.8249 6.1161C42.8249 7.93058 41.6563 8.87787 39.4815 8.87626H37.464L37.468 3.66861Z" fill="white"/>
<path d="M50.7649 0.33728L62.8872 0.346536L62.8844 3.86364L54.9017 3.8576L54.8989 7.57511L61.6813 7.58034L61.6785 11.0974L54.8961 11.0922L54.893 15.3578L63.1566 15.3642L63.1539 18.8826L50.7502 18.8729L50.7649 0.33728Z" fill="white"/>
<path d="M78.1201 18.8781L82.5085 18.8817L76.8278 0.341634L71.8668 0.338013L66.1567 18.8692L70.393 18.8724L71.5125 14.4648L77.0161 14.4688L78.1201 18.8781ZM72.3423 11.1968L72.7782 9.48972C73.2427 7.63862 73.7527 5.4688 74.2021 3.51306H74.3142C74.7533 5.4696 75.3077 7.64143 75.7697 9.49214L76.1977 11.2L72.3423 11.1968Z" fill="white"/>
</g>
<defs>
<clipPath id="clip0_19_12048">
<rect width="82.5084" height="19.2197" fill="white"/>
</clipPath>
</defs>
</svg>
