<svg width="913" height="277" viewBox="0 0 913 277" fill="none" xmlns="http://www.w3.org/2000/svg">
<rect x="393.392" y="21.6378" width="102.706" height="43.7255" rx="21.8627" fill="white" fill-opacity="0.1"/>
<rect x="393.392" y="21.6378" width="102.706" height="43.7255" rx="21.8627" stroke="#171717" stroke-width="1.27451"/>
<path d="M428.885 35.7005H431.245V49.5005H428.885V43.6805H422.125V49.5005H419.745V35.7005H422.125V41.4405H428.885V35.7005ZM443.877 44.4205C443.877 44.7005 443.857 45.0205 443.817 45.3005H435.557C435.917 46.7605 437.177 47.7205 438.837 47.7205C440.177 47.7205 441.317 47.0805 441.897 46.3205L443.417 47.6205C442.377 48.9205 440.697 49.7405 438.777 49.7405C435.537 49.7405 433.137 47.4205 433.137 44.3605C433.137 41.3405 435.457 39.0605 438.517 39.0605C441.577 39.0605 443.877 41.3405 443.877 44.4205ZM438.497 41.0805C437.037 41.0805 435.897 42.0405 435.537 43.4605H441.477C441.137 42.0205 439.957 41.0805 438.497 41.0805ZM445.528 49.5005V35.1005H447.768V49.5005H445.528ZM450.13 49.5005V35.1005H452.37V49.5005H450.13ZM459.572 49.7405C456.452 49.7405 454.112 47.4405 454.112 44.4005C454.112 41.3605 456.452 39.0605 459.572 39.0605C462.672 39.0605 465.032 41.3605 465.032 44.4005C465.032 47.4405 462.672 49.7405 459.572 49.7405ZM459.572 47.5805C461.372 47.5805 462.712 46.2005 462.712 44.4005C462.712 42.6005 461.372 41.2205 459.572 41.2205C457.772 41.2205 456.412 42.6005 456.412 44.4005C456.412 46.2005 457.772 47.5805 459.572 47.5805ZM467.037 45.3205L466.897 39.1005V35.7005H469.277V39.1005L469.137 45.3205H467.037ZM468.077 49.6605C467.197 49.6605 466.537 49.0005 466.537 48.1205C466.537 47.2405 467.197 46.5805 468.077 46.5805C468.977 46.5805 469.637 47.2405 469.637 48.1205C469.637 49.0005 468.977 49.6605 468.077 49.6605Z" fill="#171717"/>
<path d="M492.745 20.0005C492.745 17.0005 495.745 11.0005 492.745 2.00055M500.245 23.5005C504.578 19.3339 513.445 9.20055 514.245 2.00055M503.245 30.5005C505.912 30.5005 513.045 29.1005 520.245 23.5005" stroke="#FEB273" stroke-width="4" stroke-linecap="round" stroke-linejoin="round"/>
<path d="M260.507 157.001V90.1041H270.446V157.001H260.507ZM278.082 115.047L281.045 90.1041H290.984L284.676 115.047H278.082ZM295.497 157.001V109.217H305.436V114.282C307.092 112.307 309.115 110.746 311.504 109.6C313.925 108.453 316.537 107.879 319.341 107.879C322.749 107.879 325.887 108.708 328.754 110.364C331.621 111.989 333.899 114.155 335.587 116.863C337.275 114.155 339.521 111.989 342.324 110.364C345.159 108.708 348.281 107.879 351.69 107.879C355.226 107.879 358.443 108.74 361.342 110.46C364.241 112.18 366.55 114.489 368.271 117.388C369.991 120.287 370.851 123.505 370.851 127.04V157.001H360.912V129.573C360.912 127.471 360.402 125.543 359.383 123.791C358.364 122.039 356.994 120.622 355.274 119.539C353.553 118.455 351.642 117.914 349.54 117.914C347.437 117.914 345.526 118.424 343.806 119.443C342.085 120.462 340.716 121.848 339.696 123.6C338.677 125.352 338.167 127.343 338.167 129.573V157.001H328.228V129.573C328.228 127.343 327.719 125.352 326.699 123.6C325.68 121.848 324.294 120.462 322.542 119.443C320.822 118.424 318.911 117.914 316.808 117.914C314.738 117.914 312.826 118.455 311.074 119.539C309.354 120.622 307.984 122.039 306.965 123.791C305.945 125.543 305.436 127.471 305.436 129.573V157.001H295.497ZM640.992 162.352L643.954 146.202H653.893L647.586 162.352H640.992ZM111.018 253.001V186.104H134.05C137.65 186.104 140.899 186.996 143.798 188.78C146.728 190.564 149.054 192.969 150.774 195.995C152.526 199.021 153.402 202.366 153.402 206.03C153.402 209.757 152.51 213.133 150.726 216.16C148.974 219.154 146.633 221.543 143.702 223.327C140.771 225.111 137.554 226.003 134.05 226.003H120.957V253.001H111.018ZM120.957 216.064H133.046C134.958 216.064 136.694 215.586 138.255 214.631C139.848 213.675 141.106 212.401 142.03 210.808C142.985 209.215 143.463 207.415 143.463 205.409C143.463 203.402 142.985 201.602 142.03 200.009C141.106 198.384 139.848 197.11 138.255 196.186C136.694 195.231 134.958 194.753 133.046 194.753H120.957V216.064ZM159.795 253.001V205.217H169.733V210.282C171.39 208.307 173.429 206.746 175.85 205.6C178.271 204.453 180.883 203.879 183.686 203.879C185.47 203.879 187.238 204.118 188.99 204.596L185.024 214.631C183.782 214.153 182.539 213.914 181.297 213.914C179.194 213.914 177.267 214.44 175.515 215.491C173.763 216.51 172.361 217.896 171.31 219.648C170.259 221.4 169.733 223.343 169.733 225.477V253.001H159.795ZM211.863 254.243C207.467 254.243 203.453 253.112 199.822 250.85C196.222 248.589 193.339 245.562 191.173 241.772C189.039 237.949 187.972 233.728 187.972 229.109C187.972 225.605 188.593 222.34 189.835 219.313C191.078 216.255 192.782 213.579 194.948 211.286C197.146 208.96 199.694 207.145 202.593 205.839C205.492 204.532 208.582 203.879 211.863 203.879C216.259 203.879 220.257 205.01 223.857 207.272C227.488 209.534 230.371 212.576 232.506 216.399C234.672 220.221 235.755 224.458 235.755 229.109C235.755 232.581 235.134 235.83 233.891 238.857C232.649 241.883 230.929 244.559 228.731 246.884C226.565 249.178 224.032 250.978 221.133 252.284C218.266 253.59 215.176 254.243 211.863 254.243ZM211.863 244.304C214.507 244.304 216.88 243.603 218.983 242.202C221.085 240.8 222.742 238.952 223.952 236.659C225.195 234.333 225.816 231.817 225.816 229.109C225.816 226.338 225.179 223.789 223.905 221.464C222.662 219.138 220.99 217.291 218.887 215.921C216.785 214.519 214.444 213.818 211.863 213.818C209.251 213.818 206.878 214.519 204.744 215.921C202.641 217.322 200.969 219.186 199.726 221.511C198.516 223.837 197.911 226.369 197.911 229.109C197.911 231.944 198.548 234.508 199.822 236.802C201.096 239.096 202.784 240.927 204.887 242.297C207.021 243.635 209.347 244.304 211.863 244.304ZM279.171 181.326H289.11V253.001H279.171V245.976C277.61 248.461 275.571 250.468 273.055 251.997C270.538 253.494 267.592 254.243 264.215 254.243C260.743 254.243 257.493 253.59 254.467 252.284C251.441 250.978 248.765 249.178 246.44 246.884C244.146 244.559 242.346 241.883 241.04 238.857C239.734 235.83 239.081 232.581 239.081 229.109C239.081 225.637 239.734 222.387 241.04 219.361C242.346 216.303 244.146 213.627 246.44 211.334C248.765 209.008 251.441 207.192 254.467 205.886C257.493 204.58 260.743 203.927 264.215 203.927C267.592 203.927 270.538 204.692 273.055 206.221C275.571 207.718 277.61 209.693 279.171 212.146V181.326ZM264.31 244.638C267.114 244.638 269.567 243.954 271.669 242.584C273.772 241.182 275.396 239.303 276.543 236.945C277.722 234.588 278.311 231.976 278.311 229.109C278.311 226.21 277.722 223.582 276.543 221.225C275.364 218.867 273.724 217.004 271.621 215.634C269.551 214.232 267.114 213.532 264.31 213.532C261.539 213.532 259.007 214.232 256.713 215.634C254.451 217.036 252.635 218.915 251.266 221.273C249.928 223.63 249.259 226.242 249.259 229.109C249.259 232.008 249.944 234.636 251.313 236.993C252.715 239.319 254.547 241.182 256.809 242.584C259.102 243.954 261.603 244.638 264.31 244.638ZM297.212 235.082V205.217H307.151V232.645C307.151 234.779 307.677 236.722 308.728 238.474C309.779 240.227 311.181 241.628 312.933 242.679C314.685 243.699 316.612 244.208 318.715 244.208C320.849 244.208 322.776 243.699 324.496 242.679C326.248 241.628 327.634 240.227 328.654 238.474C329.705 236.722 330.23 234.779 330.23 232.645V205.217H340.169L340.217 253.001H330.278L330.23 247.84C328.606 249.815 326.583 251.376 324.162 252.523C321.741 253.67 319.145 254.243 316.373 254.243C312.837 254.243 309.62 253.383 306.721 251.663C303.822 249.942 301.513 247.633 299.792 244.734C298.072 241.835 297.212 238.618 297.212 235.082ZM378.915 239.43L387.803 244.256C385.637 247.282 382.881 249.704 379.537 251.519C376.224 253.335 372.624 254.243 368.738 254.243C364.342 254.243 360.328 253.112 356.696 250.85C353.097 248.589 350.214 245.562 348.048 241.772C345.913 237.949 344.846 233.728 344.846 229.109C344.846 225.605 345.467 222.34 346.71 219.313C347.952 216.255 349.656 213.579 351.822 211.286C354.02 208.96 356.569 207.145 359.468 205.839C362.367 204.532 365.457 203.879 368.738 203.879C372.624 203.879 376.224 204.787 379.537 206.603C382.881 208.419 385.637 210.856 387.803 213.914L378.915 218.74C377.578 217.147 376.017 215.937 374.233 215.108C372.449 214.248 370.617 213.818 368.738 213.818C366.125 213.818 363.752 214.535 361.618 215.969C359.515 217.37 357.843 219.234 356.601 221.559C355.39 223.853 354.785 226.369 354.785 229.109C354.785 231.817 355.406 234.333 356.648 236.659C357.891 238.952 359.563 240.8 361.666 242.202C363.8 243.603 366.157 244.304 368.738 244.304C370.713 244.304 372.592 243.858 374.376 242.966C376.16 242.074 377.673 240.895 378.915 239.43ZM420.225 215.156H410.191L410.143 253.001H400.204L400.252 215.156H392.655V205.217H400.252L400.204 190.213H410.143L410.191 205.217H420.225V215.156ZM448.871 253.001V186.104H470.995C475.614 186.104 479.946 186.98 483.992 188.732C488.038 190.452 491.59 192.857 494.648 195.947C497.706 199.006 500.095 202.557 501.815 206.603C503.567 210.617 504.443 214.933 504.443 219.552C504.443 224.171 503.567 228.504 501.815 232.549C500.095 236.563 497.706 240.115 494.648 243.205C491.59 246.263 488.038 248.668 483.992 250.42C479.946 252.14 475.614 253.001 470.995 253.001H448.871ZM458.81 243.062H470.995C474.244 243.062 477.271 242.456 480.074 241.246C482.909 240.035 485.41 238.347 487.576 236.181C489.774 234.015 491.478 231.514 492.689 228.679C493.899 225.844 494.504 222.802 494.504 219.552C494.504 216.303 493.899 213.261 492.689 210.426C491.478 207.591 489.774 205.09 487.576 202.924C485.41 200.758 482.909 199.069 480.074 197.859C477.271 196.648 474.244 196.043 470.995 196.043H458.81V243.062ZM531.458 254.243C527.062 254.243 523.048 253.112 519.417 250.85C515.817 248.589 512.934 245.562 510.768 241.772C508.634 237.949 507.566 233.728 507.566 229.109C507.566 225.605 508.188 222.34 509.43 219.313C510.672 216.255 512.377 213.579 514.543 211.286C516.741 208.96 519.289 207.145 522.188 205.839C525.087 204.532 528.177 203.879 531.458 203.879C535.121 203.879 538.482 204.644 541.54 206.173C544.598 207.67 547.211 209.757 549.377 212.433C551.543 215.077 553.136 218.135 554.155 221.607C555.174 225.047 555.477 228.711 555.063 232.597H518.222C518.636 234.795 519.433 236.786 520.611 238.57C521.822 240.322 523.351 241.708 525.198 242.727C527.078 243.747 529.164 244.272 531.458 244.304C533.879 244.304 536.077 243.699 538.052 242.488C540.059 241.278 541.7 239.605 542.974 237.471L553.056 239.812C551.145 244.049 548.262 247.521 544.407 250.229C540.553 252.905 536.236 254.243 531.458 254.243ZM517.888 225H545.028C544.71 222.706 543.898 220.635 542.591 218.788C541.317 216.908 539.709 215.427 537.765 214.344C535.854 213.229 533.752 212.672 531.458 212.672C529.196 212.672 527.094 213.213 525.151 214.296C523.239 215.379 521.647 216.861 520.372 218.74C519.13 220.588 518.302 222.674 517.888 225ZM576.064 253.908C573.548 253.749 571.095 253.239 568.706 252.379C566.317 251.519 564.214 250.357 562.398 248.891C560.614 247.394 559.276 245.642 558.385 243.635L566.842 240.004C567.256 240.864 567.973 241.708 568.992 242.536C570.044 243.364 571.27 244.049 572.672 244.591C574.073 245.1 575.539 245.355 577.068 245.355C578.565 245.355 579.951 245.148 581.225 244.734C582.531 244.288 583.598 243.619 584.426 242.727C585.255 241.835 585.669 240.768 585.669 239.526C585.669 238.124 585.191 237.041 584.235 236.276C583.311 235.48 582.149 234.875 580.747 234.461C579.345 234.047 577.944 233.648 576.542 233.266C573.42 232.565 570.553 231.61 567.941 230.399C565.361 229.157 563.306 227.58 561.777 225.669C560.248 223.725 559.484 221.352 559.484 218.549C559.484 215.491 560.312 212.847 561.968 210.617C563.625 208.355 565.791 206.619 568.467 205.409C571.174 204.198 574.057 203.593 577.116 203.593C580.938 203.593 584.442 204.405 587.628 206.03C590.813 207.654 593.25 209.884 594.939 212.719L587.054 217.402C586.577 216.446 585.86 215.586 584.904 214.822C583.949 214.057 582.865 213.452 581.655 213.006C580.444 212.528 579.186 212.257 577.88 212.194C576.255 212.13 574.742 212.321 573.341 212.767C571.971 213.181 570.872 213.85 570.044 214.774C569.215 215.698 568.801 216.876 568.801 218.31C568.801 219.712 569.295 220.763 570.283 221.464C571.27 222.133 572.512 222.674 574.01 223.088C575.539 223.502 577.1 223.964 578.692 224.474C581.528 225.366 584.187 226.465 586.672 227.771C589.157 229.045 591.164 230.622 592.693 232.502C594.222 234.381 594.955 236.675 594.891 239.382C594.891 242.377 593.983 245.005 592.167 247.267C590.383 249.528 588.058 251.248 585.191 252.427C582.324 253.606 579.282 254.1 576.064 253.908ZM600.8 205.217H610.738V253.001H600.8V205.217ZM605.865 198.289C604.336 198.289 603.061 197.795 602.042 196.808C601.023 195.82 600.513 194.578 600.513 193.08C600.513 191.615 601.023 190.389 602.042 189.401C603.061 188.382 604.32 187.872 605.817 187.872C607.282 187.872 608.525 188.382 609.544 189.401C610.563 190.389 611.073 191.615 611.073 193.08C611.073 194.578 610.563 195.82 609.544 196.808C608.556 197.795 607.33 198.289 605.865 198.289ZM656.261 205.217H666.2V254.243C666.2 257.524 665.499 260.55 664.097 263.322C662.728 266.093 660.864 268.482 658.507 270.489C656.149 272.528 653.442 274.105 650.384 275.22C647.357 276.335 644.188 276.892 640.875 276.892C637.53 276.892 634.313 276.175 631.223 274.742C628.133 273.34 625.409 271.429 623.052 269.008C620.726 266.587 618.99 263.847 617.843 260.789L626.97 256.68C627.607 258.655 628.626 260.407 630.028 261.936C631.461 263.465 633.118 264.676 634.997 265.568C636.909 266.459 638.868 266.905 640.875 266.905C642.85 266.905 644.745 266.587 646.561 265.95C648.409 265.345 650.049 264.484 651.483 263.369C652.948 262.255 654.111 260.917 654.971 259.356C655.831 257.795 656.261 256.091 656.261 254.243V246.168C654.7 248.589 652.693 250.548 650.24 252.045C647.787 253.51 644.936 254.243 641.687 254.243C638.31 254.243 635.125 253.59 632.13 252.284C629.136 250.978 626.508 249.178 624.246 246.884C621.984 244.559 620.216 241.883 618.942 238.857C617.668 235.83 617.031 232.581 617.031 229.109C617.031 225.637 617.668 222.387 618.942 219.361C620.216 216.303 621.984 213.627 624.246 211.334C626.508 209.008 629.136 207.192 632.13 205.886C635.125 204.58 638.31 203.927 641.687 203.927C644.936 203.927 647.787 204.676 650.24 206.173C652.693 207.638 654.7 209.597 656.261 212.05V205.217ZM641.783 244.638C644.554 244.638 646.975 243.938 649.046 242.536C651.116 241.103 652.725 239.207 653.872 236.85C655.019 234.493 655.592 231.912 655.592 229.109C655.592 226.242 655.003 223.646 653.824 221.32C652.677 218.963 651.068 217.084 648.998 215.682C646.927 214.248 644.522 213.532 641.783 213.532C639.107 213.532 636.654 214.232 634.424 215.634C632.226 217.036 630.474 218.915 629.168 221.273C627.862 223.63 627.209 226.242 627.209 229.109C627.209 231.976 627.862 234.588 629.168 236.945C630.506 239.303 632.274 241.182 634.472 242.584C636.702 243.954 639.139 244.638 641.783 244.638ZM719.238 223.04V253.001H709.3V225.477C709.3 223.343 708.774 221.4 707.723 219.648C706.703 217.896 705.318 216.51 703.566 215.491C701.845 214.44 699.902 213.914 697.736 213.914C695.634 213.914 693.706 214.44 691.954 215.491C690.202 216.51 688.801 217.896 687.749 219.648C686.698 221.4 686.172 223.343 686.172 225.477V253.001H676.234V205.217H686.172V210.282C687.829 208.307 689.868 206.746 692.289 205.6C694.71 204.453 697.322 203.879 700.125 203.879C703.661 203.879 706.878 204.74 709.777 206.46C712.676 208.18 714.97 210.489 716.658 213.388C718.378 216.287 719.238 219.505 719.238 223.04ZM747.434 254.243C743.038 254.243 739.024 253.112 735.393 250.85C731.793 248.589 728.91 245.562 726.744 241.772C724.61 237.949 723.543 233.728 723.543 229.109C723.543 225.605 724.164 222.34 725.406 219.313C726.648 216.255 728.353 213.579 730.519 211.286C732.717 208.96 735.265 207.145 738.164 205.839C741.063 204.532 744.153 203.879 747.434 203.879C751.098 203.879 754.458 204.644 757.516 206.173C760.575 207.67 763.187 209.757 765.353 212.433C767.519 215.077 769.112 218.135 770.131 221.607C771.151 225.047 771.453 228.711 771.039 232.597H734.198C734.612 234.795 735.409 236.786 736.587 238.57C737.798 240.322 739.327 241.708 741.175 242.727C743.054 243.747 745.141 244.272 747.434 244.304C749.855 244.304 752.053 243.699 754.028 242.488C756.035 241.278 757.676 239.605 758.95 237.471L769.032 239.812C767.121 244.049 764.238 247.521 760.383 250.229C756.529 252.905 752.212 254.243 747.434 254.243ZM733.864 225H761.005C760.686 222.706 759.874 220.635 758.568 218.788C757.293 216.908 755.685 215.427 753.742 214.344C751.83 213.229 749.728 212.672 747.434 212.672C745.172 212.672 743.07 213.213 741.127 214.296C739.215 215.379 737.623 216.861 736.348 218.74C735.106 220.588 734.278 222.674 733.864 225ZM777.519 253.001V205.217H787.458V210.282C789.114 208.307 791.153 206.746 793.574 205.6C795.995 204.453 798.607 203.879 801.411 203.879C803.194 203.879 804.962 204.118 806.714 204.596L802.748 214.631C801.506 214.153 800.264 213.914 799.021 213.914C796.919 213.914 794.992 214.44 793.24 215.491C791.488 216.51 790.086 217.896 789.035 219.648C787.983 221.4 787.458 223.343 787.458 225.477V253.001H777.519Z" fill="#171717"/>
<path d="M409.69 158.243C407.332 158.243 405.023 157.845 402.761 157.048C400.531 156.252 398.508 155.073 396.693 153.512L403.048 145.867C403.844 146.536 404.8 147.109 405.915 147.587C407.03 148.065 408.288 148.304 409.69 148.304C411.601 148.304 413.337 147.81 414.898 146.823C416.491 145.803 417.765 144.481 418.721 142.857C419.676 141.2 420.154 139.432 420.154 137.553V90.1041H430.093V137.553C430.093 141.28 429.169 144.72 427.322 147.874C425.474 150.996 423.005 153.512 419.915 155.424C416.857 157.303 413.449 158.243 409.69 158.243ZM461.17 158.243C456.774 158.243 452.76 157.112 449.129 154.85C445.529 152.589 442.646 149.562 440.48 145.772C438.346 141.949 437.278 137.728 437.278 133.109C437.278 129.605 437.9 126.34 439.142 123.313C440.384 120.255 442.089 117.579 444.255 115.286C446.453 112.96 449.001 111.145 451.9 109.839C454.799 108.532 457.889 107.879 461.17 107.879C464.833 107.879 468.194 108.644 471.252 110.173C474.31 111.67 476.923 113.757 479.089 116.433C481.255 119.077 482.848 122.135 483.867 125.607C484.886 129.047 485.189 132.711 484.775 136.597H447.934C448.348 138.795 449.145 140.786 450.323 142.57C451.534 144.322 453.063 145.708 454.91 146.727C456.79 147.747 458.876 148.272 461.17 148.304C463.591 148.304 465.789 147.699 467.764 146.488C469.771 145.278 471.412 143.605 472.686 141.471L482.768 143.812C480.857 148.049 477.974 151.521 474.119 154.229C470.265 156.905 465.948 158.243 461.17 158.243ZM447.6 129H474.74C474.422 126.706 473.61 124.635 472.304 122.788C471.029 120.908 469.421 119.427 467.477 118.344C465.566 117.229 463.464 116.672 461.17 116.672C458.908 116.672 456.806 117.213 454.863 118.296C452.951 119.379 451.359 120.861 450.084 122.74C448.842 124.588 448.014 126.674 447.6 129ZM534.26 127.04V157.001H524.321V129.477C524.321 127.343 523.795 125.4 522.744 123.648C521.725 121.896 520.339 120.51 518.587 119.491C516.867 118.44 514.923 117.914 512.757 117.914C510.655 117.914 508.728 118.44 506.975 119.491C505.223 120.51 503.822 121.896 502.771 123.648C501.719 125.4 501.194 127.343 501.194 129.477V157.001H491.255V109.217H501.194V114.282C502.85 112.307 504.889 110.746 507.31 109.6C509.731 108.453 512.343 107.879 515.146 107.879C518.682 107.879 521.9 108.74 524.799 110.46C527.697 112.18 529.991 114.489 531.679 117.388C533.4 120.287 534.26 123.505 534.26 127.04ZM585.369 127.04V157.001H575.43V129.477C575.43 127.343 574.904 125.4 573.853 123.648C572.834 121.896 571.448 120.51 569.696 119.491C567.976 118.44 566.033 117.914 563.867 117.914C561.764 117.914 559.837 118.44 558.085 119.491C556.333 120.51 554.931 121.896 553.88 123.648C552.829 125.4 552.303 127.343 552.303 129.477V157.001H542.364V109.217H552.303V114.282C553.959 112.307 555.998 110.746 558.419 109.6C560.84 108.453 563.452 107.879 566.256 107.879C569.792 107.879 573.009 108.74 575.908 110.46C578.807 112.18 581.1 114.489 582.789 117.388C584.509 120.287 585.369 123.505 585.369 127.04ZM624.152 109.217H634.76L608.574 180.892H598.014L606.663 157.001L589.509 109.217H600.356L611.633 143.382L624.152 109.217Z" fill="#FD853A"/>
</svg>
