<svg width="328" height="138" viewBox="0 0 328 138" fill="none" xmlns="http://www.w3.org/2000/svg">
<path d="M12.135 17.445H5.1C5.22 10.44 6.6 9.285 10.905 6.735C11.4 6.435 11.565 5.805 11.265 5.295C10.98 4.8 10.335 4.635 9.84 4.935C4.77 7.935 3 9.765 3 18.48V26.565C3 29.13 5.085 31.2 7.635 31.2H12.135C14.775 31.2 16.77 29.205 16.77 26.565V22.065C16.77 19.44 14.775 17.445 12.135 17.445Z" fill="#344054"/>
<path d="M28.3651 17.445H21.3301C21.4501 10.44 22.8301 9.285 27.1351 6.735C27.6301 6.435 27.7951 5.805 27.4951 5.295C27.1951 4.8 26.5651 4.635 26.0551 4.935C20.9851 7.935 19.2151 9.765 19.2151 18.495V26.58C19.2151 29.145 21.3001 31.215 23.8501 31.215H28.3501C30.9901 31.215 32.9851 29.22 32.9851 26.58V22.08C33.0001 19.44 31.0051 17.445 28.3651 17.445Z" fill="#344054"/>
<path d="M2.82 79.24C1.94 79.24 1.16 79.04 0.54 78.76V76.46C1.1 76.74 1.82 76.94 2.58 76.94C4.1 76.94 5.02 76.08 5.02 74.66V65.2H7.4V74.78C7.4 77.54 5.56 79.24 2.82 79.24ZM19.7338 73.92C19.7338 74.2 19.7138 74.52 19.6737 74.8H11.4137C11.7738 76.26 13.0338 77.22 14.6938 77.22C16.0338 77.22 17.1738 76.58 17.7538 75.82L19.2738 77.12C18.2337 78.42 16.5538 79.24 14.6337 79.24C11.3937 79.24 8.99375 76.92 8.99375 73.86C8.99375 70.84 11.3137 68.56 14.3738 68.56C17.4338 68.56 19.7338 70.84 19.7338 73.92ZM14.3537 70.58C12.8937 70.58 11.7537 71.54 11.3937 72.96H17.3338C16.9938 71.52 15.8138 70.58 14.3537 70.58ZM27.0641 68.56C29.4841 68.56 31.1041 70.16 31.1041 72.58V79H28.8641V73.32C28.8641 71.76 27.8641 70.72 26.3241 70.72C24.7041 70.72 23.6241 71.78 23.6241 73.36V79H21.3841V68.8H23.6241V70.12C24.4441 69.1 25.6241 68.56 27.0641 68.56ZM38.9711 68.56C41.3911 68.56 43.0111 70.16 43.0111 72.58V79H40.7711V73.32C40.7711 71.76 39.7711 70.72 38.2311 70.72C36.6111 70.72 35.5311 71.78 35.5311 73.36V79H33.2911V68.8H35.5311V70.12C36.3511 69.1 37.5311 68.56 38.9711 68.56ZM52.0894 68.8H54.5894L49.3694 80.94C48.8094 82.26 47.6894 83.04 46.4494 83.04C45.5894 83.04 44.5694 82.64 43.9094 82.04L44.8094 80.3C45.1294 80.64 45.6094 80.88 46.0894 80.88C46.5894 80.88 47.0294 80.62 47.3094 80.02L47.8494 78.88L43.5894 68.8H46.1494L49.1094 76.24L52.0894 68.8ZM55.5123 70.46L56.9123 65.2H59.5523L57.4523 70.46H55.5123ZM63.3706 79.24C61.5106 79.24 60.1106 78.54 59.1306 77.68L60.2906 76.1C61.0706 76.84 62.0706 77.3 63.3306 77.3C64.4706 77.3 65.3506 76.9 65.3506 76.18C65.3506 75.38 64.3506 75.12 63.1506 74.84C61.5106 74.46 59.4506 73.94 59.4506 71.7C59.4506 69.6 61.3106 68.56 63.5106 68.56C65.1906 68.56 66.4906 69.18 67.3906 69.92L66.2106 71.5C65.5106 70.9 64.6106 70.5 63.5506 70.5C62.5506 70.5 61.7306 70.84 61.7306 71.54C61.7306 72.34 62.7106 72.58 63.9506 72.86C65.5906 73.22 67.6306 73.74 67.6306 75.96C67.6306 78.08 65.7506 79.24 63.3706 79.24ZM76.2261 76.76H83.1261V79H73.8461V65.2H83.0261V67.44H76.2261V70.94H82.3661V73.18H76.2261V76.76ZM94.7448 79H92.0048L89.4248 75.4L86.8448 79H84.1248L87.9048 73.88L84.1848 68.8H86.9248L89.4448 72.36L91.9648 68.8H94.6848L90.9648 73.88L94.7448 79ZM100.133 79.24C97.0127 79.24 94.6727 76.94 94.6727 73.9C94.6727 70.86 97.0127 68.56 100.133 68.56C102.173 68.56 103.893 69.56 104.813 71.1L102.873 72.28C102.333 71.34 101.333 70.72 100.133 70.72C98.3327 70.72 96.9727 72.1 96.9727 73.9C96.9727 75.7 98.3327 77.08 100.133 77.08C101.333 77.08 102.333 76.46 102.873 75.52L104.813 76.7C103.893 78.24 102.173 79.24 100.133 79.24ZM116.304 73.92C116.304 74.2 116.284 74.52 116.244 74.8H107.984C108.344 76.26 109.604 77.22 111.264 77.22C112.604 77.22 113.744 76.58 114.324 75.82L115.844 77.12C114.804 78.42 113.124 79.24 111.204 79.24C107.964 79.24 105.564 76.92 105.564 73.86C105.564 70.84 107.884 68.56 110.944 68.56C114.004 68.56 116.304 70.84 116.304 73.92ZM110.924 70.58C109.464 70.58 108.324 71.54 107.964 72.96H113.904C113.564 71.52 112.384 70.58 110.924 70.58ZM123.794 68.56C126.654 68.56 128.814 70.86 128.814 73.9C128.814 76.94 126.654 79.24 123.794 79.24C122.294 79.24 121.034 78.6 120.194 77.52V82.8H117.954V68.8H120.194V70.28C121.034 69.2 122.294 68.56 123.794 68.56ZM123.354 77.08C125.154 77.08 126.494 75.7 126.494 73.9C126.494 72.1 125.154 70.72 123.354 70.72C121.554 70.72 120.194 72.1 120.194 73.9C120.194 75.7 121.554 77.08 123.354 77.08ZM136.197 70.84H133.317V75.66C133.317 76.62 133.857 77.08 134.797 77.08C135.357 77.08 135.797 76.92 136.197 76.72V78.82C135.637 79.1 135.077 79.24 134.337 79.24C132.137 79.24 131.077 78 131.077 76.02V70.84H129.357V68.8H131.077V66.16H133.317V68.8H136.197V70.84ZM139.041 67.08C138.241 67.08 137.621 66.46 137.621 65.66C137.621 64.84 138.241 64.24 139.041 64.24C139.861 64.24 140.481 64.84 140.481 65.66C140.481 66.46 139.861 67.08 139.041 67.08ZM137.921 79V68.8H140.161V79H137.921ZM147.363 79.24C144.243 79.24 141.903 76.94 141.903 73.9C141.903 70.86 144.243 68.56 147.363 68.56C150.463 68.56 152.823 70.86 152.823 73.9C152.823 76.94 150.463 79.24 147.363 79.24ZM147.363 77.08C149.163 77.08 150.503 75.7 150.503 73.9C150.503 72.1 149.163 70.72 147.363 70.72C145.563 70.72 144.203 72.1 144.203 73.9C144.203 75.7 145.563 77.08 147.363 77.08ZM160.227 68.56C162.647 68.56 164.267 70.16 164.267 72.58V79H162.027V73.32C162.027 71.76 161.027 70.72 159.487 70.72C157.867 70.72 156.787 71.78 156.787 73.36V79H154.547V68.8H156.787V70.12C157.607 69.1 158.787 68.56 160.227 68.56ZM174.474 68.8H176.714V79H174.474V77.54C173.634 78.6 172.394 79.24 170.894 79.24C168.014 79.24 165.874 76.94 165.874 73.9C165.874 70.86 168.014 68.56 170.894 68.56C172.394 68.56 173.634 69.2 174.474 70.26V68.8ZM171.334 77.08C173.134 77.08 174.474 75.7 174.474 73.9C174.474 72.1 173.134 70.72 171.334 70.72C169.514 70.72 168.174 72.1 168.174 73.9C168.174 75.7 169.514 77.08 171.334 77.08ZM179.084 79V64.6H181.324V79H179.084ZM193.953 68.56C196.813 68.56 198.973 70.86 198.973 73.9C198.973 76.94 196.813 79.24 193.953 79.24C192.453 79.24 191.193 78.6 190.353 77.52V82.8H188.113V68.8H190.353V70.28C191.193 69.2 192.453 68.56 193.953 68.56ZM193.513 77.08C195.313 77.08 196.653 75.7 196.653 73.9C196.653 72.1 195.313 70.72 193.513 70.72C191.713 70.72 190.353 72.1 190.353 73.9C190.353 75.7 191.713 77.08 193.513 77.08ZM206.163 68.64H206.543V70.94H206.163C204.163 70.94 202.983 72.16 202.983 74.04V79H200.743V68.8H202.983V70.3C203.743 69.26 204.823 68.64 206.163 68.64ZM212.412 79.24C209.292 79.24 206.952 76.94 206.952 73.9C206.952 70.86 209.292 68.56 212.412 68.56C215.512 68.56 217.872 70.86 217.872 73.9C217.872 76.94 215.512 79.24 212.412 79.24ZM212.412 77.08C214.212 77.08 215.552 75.7 215.552 73.9C215.552 72.1 214.212 70.72 212.412 70.72C210.612 70.72 209.252 72.1 209.252 73.9C209.252 75.7 210.612 77.08 212.412 77.08ZM227.616 64.6H229.856V79H227.616V77.54C226.776 78.6 225.536 79.24 224.036 79.24C221.156 79.24 219.016 76.94 219.016 73.9C219.016 70.86 221.156 68.56 224.036 68.56C225.536 68.56 226.776 69.2 227.616 70.26V64.6ZM224.476 77.08C226.276 77.08 227.616 75.7 227.616 73.9C227.616 72.1 226.276 70.72 224.476 70.72C222.656 70.72 221.316 72.1 221.316 73.9C221.316 75.7 222.656 77.08 224.476 77.08ZM236.785 79.24C233.945 79.24 232.065 77.54 232.065 74.94V68.8H234.305V74.64C234.305 76.1 235.305 77.08 236.785 77.08C238.265 77.08 239.245 76.1 239.245 74.64V68.8H241.485V74.94C241.485 77.54 239.605 79.24 236.785 79.24ZM248.504 79.24C245.384 79.24 243.044 76.94 243.044 73.9C243.044 70.86 245.384 68.56 248.504 68.56C250.544 68.56 252.264 69.56 253.184 71.1L251.244 72.28C250.704 71.34 249.704 70.72 248.504 70.72C246.704 70.72 245.344 72.1 245.344 73.9C245.344 75.7 246.704 77.08 248.504 77.08C249.704 77.08 250.704 76.46 251.244 75.52L253.184 76.7C252.264 78.24 250.544 79.24 248.504 79.24ZM260.754 70.84H257.874V75.66C257.874 76.62 258.414 77.08 259.354 77.08C259.914 77.08 260.354 76.92 260.754 76.72V78.82C260.194 79.1 259.634 79.24 258.894 79.24C256.694 79.24 255.634 78 255.634 76.02V70.84H253.914V68.8H255.634V66.16H257.874V68.8H260.754V70.84ZM274.924 64.6H277.164V79H274.924V77.54C274.084 78.6 272.844 79.24 271.344 79.24C268.464 79.24 266.324 76.94 266.324 73.9C266.324 70.86 268.464 68.56 271.344 68.56C272.844 68.56 274.084 69.2 274.924 70.26V64.6ZM271.784 77.08C273.584 77.08 274.924 75.7 274.924 73.9C274.924 72.1 273.584 70.72 271.784 70.72C269.964 70.72 268.624 72.1 268.624 73.9C268.624 75.7 269.964 77.08 271.784 77.08ZM289.654 73.92C289.654 74.2 289.634 74.52 289.594 74.8H281.334C281.694 76.26 282.954 77.22 284.614 77.22C285.954 77.22 287.094 76.58 287.674 75.82L289.194 77.12C288.154 78.42 286.474 79.24 284.554 79.24C281.314 79.24 278.914 76.92 278.914 73.86C278.914 70.84 281.234 68.56 284.294 68.56C287.354 68.56 289.654 70.84 289.654 73.92ZM284.274 70.58C282.814 70.58 281.674 71.54 281.314 72.96H287.254C286.914 71.52 285.734 70.58 284.274 70.58ZM294.764 79.24C292.904 79.24 291.504 78.54 290.524 77.68L291.684 76.1C292.464 76.84 293.464 77.3 294.724 77.3C295.864 77.3 296.744 76.9 296.744 76.18C296.744 75.38 295.744 75.12 294.544 74.84C292.904 74.46 290.844 73.94 290.844 71.7C290.844 69.6 292.704 68.56 294.904 68.56C296.584 68.56 297.884 69.18 298.784 69.92L297.604 71.5C296.904 70.9 296.004 70.5 294.944 70.5C293.944 70.5 293.124 70.84 293.124 71.54C293.124 72.34 294.104 72.58 295.344 72.86C296.984 73.22 299.024 73.74 299.024 75.96C299.024 78.08 297.144 79.24 294.764 79.24ZM301.753 67.08C300.953 67.08 300.333 66.46 300.333 65.66C300.333 64.84 300.953 64.24 301.753 64.24C302.573 64.24 303.193 64.84 303.193 65.66C303.193 66.46 302.573 67.08 301.753 67.08ZM300.633 79V68.8H302.873V79H300.633ZM311.696 79.1C313.676 79.1 315.076 80.2 315.376 82L313.056 82.62C312.996 81.8 312.296 81.28 311.276 81.28H307.776C305.956 81.28 304.736 80.22 304.736 78.68C304.736 77.66 305.256 76.7 306.076 76.22C305.216 75.42 304.696 74.3 304.696 73.02C304.696 70.48 306.736 68.56 309.436 68.56C310.296 68.56 311.076 68.76 311.756 69.1C312.016 68.02 312.956 67.34 314.256 67.34H315.076V69.42H314.376C313.756 69.42 313.296 69.76 313.236 70.3C313.836 71.04 314.176 71.98 314.176 73.02C314.176 75.56 312.116 77.48 309.436 77.48C308.756 77.48 308.116 77.36 307.536 77.14C307.196 77.36 306.996 77.74 306.996 78.12C306.996 78.7 307.476 79.1 308.196 79.1H311.696ZM309.436 70.68C308.036 70.68 306.996 71.68 306.996 73.02C306.996 74.34 308.036 75.36 309.436 75.36C310.816 75.36 311.856 74.34 311.856 73.02C311.856 71.68 310.816 70.68 309.436 70.68ZM321.885 68.56C324.305 68.56 325.925 70.16 325.925 72.58V79H323.685V73.32C323.685 71.76 322.685 70.72 321.145 70.72C319.525 70.72 318.445 71.78 318.445 73.36V79H316.205V68.8H318.445V70.12C319.265 69.1 320.445 68.56 321.885 68.56ZM11.44 99.92C11.44 100.2 11.42 100.52 11.38 100.8H3.12C3.48 102.26 4.74 103.22 6.4 103.22C7.74 103.22 8.88 102.58 9.46 101.82L10.98 103.12C9.94 104.42 8.26 105.24 6.34 105.24C3.1 105.24 0.7 102.92 0.7 99.86C0.7 96.84 3.02 94.56 6.08 94.56C9.14 94.56 11.44 96.84 11.44 99.92ZM6.06 96.58C4.6 96.58 3.46 97.54 3.1 98.96H9.04C8.7 97.52 7.52 96.58 6.06 96.58ZM18.7703 94.56C21.1903 94.56 22.8103 96.16 22.8103 98.58V105H20.5703V99.32C20.5703 97.76 19.5703 96.72 18.0303 96.72C16.4103 96.72 15.3303 97.78 15.3303 99.36V105H13.0903V94.8H15.3303V96.12C16.1503 95.1 17.3303 94.56 18.7703 94.56ZM28.4378 105.24C26.5778 105.24 25.1778 104.54 24.1978 103.68L25.3578 102.1C26.1378 102.84 27.1378 103.3 28.3978 103.3C29.5378 103.3 30.4178 102.9 30.4178 102.18C30.4178 101.38 29.4178 101.12 28.2178 100.84C26.5778 100.46 24.5178 99.94 24.5178 97.7C24.5178 95.6 26.3778 94.56 28.5778 94.56C30.2578 94.56 31.5578 95.18 32.4578 95.92L31.2778 97.5C30.5778 96.9 29.6778 96.5 28.6178 96.5C27.6178 96.5 26.7978 96.84 26.7978 97.54C26.7978 98.34 27.7778 98.58 29.0178 98.86C30.6578 99.22 32.6978 99.74 32.6978 101.96C32.6978 104.08 30.8178 105.24 28.4378 105.24ZM38.8667 105.24C36.0267 105.24 34.1467 103.54 34.1467 100.94V94.8H36.3867V100.64C36.3867 102.1 37.3867 103.08 38.8667 103.08C40.3467 103.08 41.3267 102.1 41.3267 100.64V94.8H43.5667V100.94C43.5667 103.54 41.6867 105.24 38.8667 105.24ZM51.165 94.64H51.545V96.94H51.165C49.165 96.94 47.985 98.16 47.985 100.04V105H45.745V94.8H47.985V96.3C48.745 95.26 49.825 94.64 51.165 94.64ZM62.6939 99.92C62.6939 100.2 62.6739 100.52 62.6339 100.8H54.3739C54.7339 102.26 55.9939 103.22 57.6539 103.22C58.9939 103.22 60.1339 102.58 60.7139 101.82L62.2339 103.12C61.1939 104.42 59.5139 105.24 57.5939 105.24C54.3539 105.24 51.9539 102.92 51.9539 99.86C51.9539 96.84 54.2739 94.56 57.3339 94.56C60.3939 94.56 62.6939 96.84 62.6939 99.92ZM57.3139 96.58C55.8539 96.58 54.7139 97.54 54.3539 98.96H60.2939C59.9539 97.52 58.7739 96.58 57.3139 96.58ZM73.6108 105.24C70.4908 105.24 68.1508 102.94 68.1508 99.9C68.1508 96.86 70.4908 94.56 73.6108 94.56C76.7108 94.56 79.0708 96.86 79.0708 99.9C79.0708 102.94 76.7108 105.24 73.6108 105.24ZM73.6108 103.08C75.4108 103.08 76.7508 101.7 76.7508 99.9C76.7508 98.1 75.4108 96.72 73.6108 96.72C71.8108 96.72 70.4508 98.1 70.4508 99.9C70.4508 101.7 71.8108 103.08 73.6108 103.08ZM85.355 105.24C82.515 105.24 80.635 103.54 80.635 100.94V94.8H82.875V100.64C82.875 102.1 83.875 103.08 85.355 103.08C86.835 103.08 87.815 102.1 87.815 100.64V94.8H90.055V100.94C90.055 103.54 88.175 105.24 85.355 105.24ZM97.6533 94.64H98.0333V96.94H97.6533C95.6533 96.94 94.4733 98.16 94.4733 100.04V105H92.2333V94.8H94.4733V96.3C95.2333 95.26 96.3133 94.64 97.6533 94.64ZM117.141 94.8H119.561L115.901 105H113.581L111.161 97.48L108.721 105H106.401L102.741 94.8H105.241L107.621 102.18L110.041 94.8H112.321L114.761 102.2L117.141 94.8ZM130.36 99.92C130.36 100.2 130.34 100.52 130.3 100.8H122.04C122.4 102.26 123.66 103.22 125.32 103.22C126.66 103.22 127.8 102.58 128.38 101.82L129.9 103.12C128.86 104.42 127.18 105.24 125.26 105.24C122.02 105.24 119.62 102.92 119.62 99.86C119.62 96.84 121.94 94.56 125 94.56C128.06 94.56 130.36 96.84 130.36 99.92ZM124.98 96.58C123.52 96.58 122.38 97.54 122.02 98.96H127.96C127.62 97.52 126.44 96.58 124.98 96.58ZM137.85 94.56C140.71 94.56 142.87 96.86 142.87 99.9C142.87 102.94 140.71 105.24 137.85 105.24C136.35 105.24 135.09 104.6 134.25 103.52V105H132.01V90.6H134.25V96.28C135.09 95.2 136.35 94.56 137.85 94.56ZM137.41 103.08C139.21 103.08 140.55 101.7 140.55 99.9C140.55 98.1 139.21 96.72 137.41 96.72C135.61 96.72 134.25 98.1 134.25 99.9C134.25 101.7 135.61 103.08 137.41 103.08ZM148.1 105.24C146.24 105.24 144.84 104.54 143.86 103.68L145.02 102.1C145.8 102.84 146.8 103.3 148.06 103.3C149.2 103.3 150.08 102.9 150.08 102.18C150.08 101.38 149.08 101.12 147.88 100.84C146.24 100.46 144.18 99.94 144.18 97.7C144.18 95.6 146.04 94.56 148.24 94.56C149.92 94.56 151.22 95.18 152.12 95.92L150.94 97.5C150.24 96.9 149.34 96.5 148.28 96.5C147.28 96.5 146.46 96.84 146.46 97.54C146.46 98.34 147.44 98.58 148.68 98.86C150.32 99.22 152.36 99.74 152.36 101.96C152.36 104.08 150.48 105.24 148.1 105.24ZM155.088 93.08C154.288 93.08 153.668 92.46 153.668 91.66C153.668 90.84 154.288 90.24 155.088 90.24C155.908 90.24 156.528 90.84 156.528 91.66C156.528 92.46 155.908 93.08 155.088 93.08ZM153.968 105V94.8H156.208V105H153.968ZM164.711 96.84H161.831V101.66C161.831 102.62 162.371 103.08 163.311 103.08C163.871 103.08 164.311 102.92 164.711 102.72V104.82C164.151 105.1 163.591 105.24 162.851 105.24C160.651 105.24 159.591 104 159.591 102.02V96.84H157.871V94.8H159.591V92.16H161.831V94.8H164.711V96.84ZM176.223 99.92C176.223 100.2 176.203 100.52 176.163 100.8H167.903C168.263 102.26 169.523 103.22 171.183 103.22C172.523 103.22 173.663 102.58 174.243 101.82L175.763 103.12C174.723 104.42 173.043 105.24 171.123 105.24C167.883 105.24 165.483 102.92 165.483 99.86C165.483 96.84 167.803 94.56 170.863 94.56C173.923 94.56 176.223 96.84 176.223 99.92ZM170.843 96.58C169.383 96.58 168.243 97.54 167.883 98.96H173.823C173.483 97.52 172.303 96.58 170.843 96.58ZM176.651 96.46L178.051 91.2H180.691L178.591 96.46H176.651ZM184.51 105.24C182.65 105.24 181.25 104.54 180.27 103.68L181.43 102.1C182.21 102.84 183.21 103.3 184.47 103.3C185.61 103.3 186.49 102.9 186.49 102.18C186.49 101.38 185.49 101.12 184.29 100.84C182.65 100.46 180.59 99.94 180.59 97.7C180.59 95.6 182.45 94.56 184.65 94.56C186.33 94.56 187.63 95.18 188.53 95.92L187.35 97.5C186.65 96.9 185.75 96.5 184.69 96.5C183.69 96.5 182.87 96.84 182.87 97.54C182.87 98.34 183.85 98.58 185.09 98.86C186.73 99.22 188.77 99.74 188.77 101.96C188.77 104.08 186.89 105.24 184.51 105.24ZM198.265 105.24C196.405 105.24 195.005 104.54 194.025 103.68L195.185 102.1C195.965 102.84 196.965 103.3 198.225 103.3C199.365 103.3 200.245 102.9 200.245 102.18C200.245 101.38 199.245 101.12 198.045 100.84C196.405 100.46 194.345 99.94 194.345 97.7C194.345 95.6 196.205 94.56 198.405 94.56C200.085 94.56 201.385 95.18 202.285 95.92L201.105 97.5C200.405 96.9 199.505 96.5 198.445 96.5C197.445 96.5 196.625 96.84 196.625 97.54C196.625 98.34 197.605 98.58 198.845 98.86C200.485 99.22 202.525 99.74 202.525 101.96C202.525 104.08 200.645 105.24 198.265 105.24ZM208.694 105.24C205.854 105.24 203.974 103.54 203.974 100.94V94.8H206.214V100.64C206.214 102.1 207.214 103.08 208.694 103.08C210.174 103.08 211.154 102.1 211.154 100.64V94.8H213.394V100.94C213.394 103.54 211.514 105.24 208.694 105.24ZM220.412 105.24C217.292 105.24 214.952 102.94 214.952 99.9C214.952 96.86 217.292 94.56 220.412 94.56C222.452 94.56 224.172 95.56 225.092 97.1L223.152 98.28C222.612 97.34 221.612 96.72 220.412 96.72C218.612 96.72 217.252 98.1 217.252 99.9C217.252 101.7 218.612 103.08 220.412 103.08C221.612 103.08 222.612 102.46 223.152 101.52L225.092 102.7C224.172 104.24 222.452 105.24 220.412 105.24ZM231.304 105.24C228.184 105.24 225.844 102.94 225.844 99.9C225.844 96.86 228.184 94.56 231.304 94.56C233.344 94.56 235.064 95.56 235.984 97.1L234.044 98.28C233.504 97.34 232.504 96.72 231.304 96.72C229.504 96.72 228.144 98.1 228.144 99.9C228.144 101.7 229.504 103.08 231.304 103.08C232.504 103.08 233.504 102.46 234.044 101.52L235.984 102.7C235.064 104.24 233.344 105.24 231.304 105.24ZM247.475 99.92C247.475 100.2 247.455 100.52 247.415 100.8H239.155C239.515 102.26 240.775 103.22 242.435 103.22C243.775 103.22 244.915 102.58 245.495 101.82L247.015 103.12C245.975 104.42 244.295 105.24 242.375 105.24C239.135 105.24 236.735 102.92 236.735 99.86C236.735 96.84 239.055 94.56 242.115 94.56C245.175 94.56 247.475 96.84 247.475 99.92ZM242.095 96.58C240.635 96.58 239.495 97.54 239.135 98.96H245.075C244.735 97.52 243.555 96.58 242.095 96.58ZM252.585 105.24C250.725 105.24 249.325 104.54 248.345 103.68L249.505 102.1C250.285 102.84 251.285 103.3 252.545 103.3C253.685 103.3 254.565 102.9 254.565 102.18C254.565 101.38 253.565 101.12 252.365 100.84C250.725 100.46 248.665 99.94 248.665 97.7C248.665 95.6 250.525 94.56 252.725 94.56C254.405 94.56 255.705 95.18 256.605 95.92L255.425 97.5C254.725 96.9 253.825 96.5 252.765 96.5C251.765 96.5 250.945 96.84 250.945 97.54C250.945 98.34 251.925 98.58 253.165 98.86C254.805 99.22 256.845 99.74 256.845 101.96C256.845 104.08 254.965 105.24 252.585 105.24ZM261.895 105.24C260.035 105.24 258.635 104.54 257.655 103.68L258.815 102.1C259.595 102.84 260.595 103.3 261.855 103.3C262.995 103.3 263.875 102.9 263.875 102.18C263.875 101.38 262.875 101.12 261.675 100.84C260.035 100.46 257.975 99.94 257.975 97.7C257.975 95.6 259.835 94.56 262.035 94.56C263.715 94.56 265.015 95.18 265.915 95.92L264.735 97.5C264.035 96.9 263.135 96.5 262.075 96.5C261.075 96.5 260.255 96.84 260.255 97.54C260.255 98.34 261.235 98.58 262.475 98.86C264.115 99.22 266.155 99.74 266.155 101.96C266.155 104.08 264.275 105.24 261.895 105.24ZM268.962 105.16C268.062 105.16 267.362 104.48 267.362 103.58C267.362 102.68 268.062 101.98 268.962 101.98C269.882 101.98 270.562 102.68 270.562 103.58C270.562 104.48 269.882 105.16 268.962 105.16ZM10.64 117.2H13V131H10.64V125.18H3.88V131H1.5V117.2H3.88V122.94H10.64V117.2ZM16.6322 119.08C15.8322 119.08 15.2122 118.46 15.2122 117.66C15.2122 116.84 15.8322 116.24 16.6322 116.24C17.4522 116.24 18.0722 116.84 18.0722 117.66C18.0722 118.46 17.4522 119.08 16.6322 119.08ZM15.5122 131V120.8H17.7522V131H15.5122ZM26.5745 131.1C28.5545 131.1 29.9545 132.2 30.2545 134L27.9345 134.62C27.8745 133.8 27.1745 133.28 26.1545 133.28H22.6545C20.8345 133.28 19.6145 132.22 19.6145 130.68C19.6145 129.66 20.1345 128.7 20.9545 128.22C20.0945 127.42 19.5745 126.3 19.5745 125.02C19.5745 122.48 21.6145 120.56 24.3145 120.56C25.1745 120.56 25.9545 120.76 26.6345 121.1C26.8945 120.02 27.8345 119.34 29.1345 119.34H29.9545V121.42H29.2545C28.6345 121.42 28.1745 121.76 28.1145 122.3C28.7145 123.04 29.0545 123.98 29.0545 125.02C29.0545 127.56 26.9945 129.48 24.3145 129.48C23.6345 129.48 22.9945 129.36 22.4145 129.14C22.0745 129.36 21.8745 129.74 21.8745 130.12C21.8745 130.7 22.3545 131.1 23.0745 131.1H26.5745ZM24.3145 122.68C22.9145 122.68 21.8745 123.68 21.8745 125.02C21.8745 126.34 22.9145 127.36 24.3145 127.36C25.6945 127.36 26.7345 126.34 26.7345 125.02C26.7345 123.68 25.6945 122.68 24.3145 122.68ZM36.7641 120.56C39.1841 120.56 40.8041 122.16 40.8041 124.58V131H38.5641V125.32C38.5641 123.76 37.5641 122.72 36.0241 122.72C34.4041 122.72 33.3241 123.78 33.3241 125.36V131H31.0841V116.6H33.3241V122.18C34.1441 121.12 35.3241 120.56 36.7641 120.56ZM42.9911 131V116.6H45.2311V131H42.9911ZM54.9534 120.8H57.4534L52.2334 132.94C51.6734 134.26 50.5534 135.04 49.3134 135.04C48.4534 135.04 47.4334 134.64 46.7734 134.04L47.6734 132.3C47.9934 132.64 48.4734 132.88 48.9534 132.88C49.4534 132.88 49.8934 132.62 50.1734 132.02L50.7134 130.88L46.4534 120.8H49.0134L51.9734 128.24L54.9534 120.8ZM71.0072 131L67.4472 125.86H65.6472V131H63.2672V117.2H69.0072C71.5872 117.2 73.5472 119.08 73.5472 121.58C73.5472 123.68 72.1472 125.3 70.1472 125.74L73.8672 131H71.0072ZM65.6472 119.44V123.78H68.9672C70.1872 123.78 71.1072 122.84 71.1072 121.6C71.1072 120.36 70.1872 119.44 68.9672 119.44H65.6472ZM85.2119 125.92C85.2119 126.2 85.1919 126.52 85.1519 126.8H76.8919C77.2519 128.26 78.5119 129.22 80.1719 129.22C81.5119 129.22 82.6519 128.58 83.2319 127.82L84.7519 129.12C83.7119 130.42 82.0319 131.24 80.1119 131.24C76.8719 131.24 74.4719 128.92 74.4719 125.86C74.4719 122.84 76.7919 120.56 79.8519 120.56C82.9119 120.56 85.2119 122.84 85.2119 125.92ZM79.8319 122.58C78.3719 122.58 77.2319 123.54 76.8719 124.96H82.8119C82.4719 123.52 81.2919 122.58 79.8319 122.58ZM91.7022 131.24C88.5822 131.24 86.2422 128.94 86.2422 125.9C86.2422 122.86 88.5822 120.56 91.7022 120.56C93.7422 120.56 95.4622 121.56 96.3822 123.1L94.4422 124.28C93.9022 123.34 92.9022 122.72 91.7022 122.72C89.9022 122.72 88.5422 124.1 88.5422 125.9C88.5422 127.7 89.9022 129.08 91.7022 129.08C92.9022 129.08 93.9022 128.46 94.4422 127.52L96.3822 128.7C95.4622 130.24 93.7422 131.24 91.7022 131.24ZM102.594 131.24C99.4736 131.24 97.1336 128.94 97.1336 125.9C97.1336 122.86 99.4736 120.56 102.594 120.56C105.694 120.56 108.054 122.86 108.054 125.9C108.054 128.94 105.694 131.24 102.594 131.24ZM102.594 129.08C104.394 129.08 105.734 127.7 105.734 125.9C105.734 124.1 104.394 122.72 102.594 122.72C100.794 122.72 99.4336 124.1 99.4336 125.9C99.4336 127.7 100.794 129.08 102.594 129.08ZM122.038 120.56C124.358 120.56 125.858 122.08 125.858 124.38V131H123.618V125.04C123.618 123.64 122.738 122.72 121.358 122.72C119.918 122.72 118.938 123.66 118.938 125.08V131H116.698V125.04C116.698 123.64 115.818 122.72 114.438 122.72C112.998 122.72 112.018 123.66 112.018 125.08V131H109.778V120.8H112.018V122C112.778 121.06 113.858 120.56 115.178 120.56C116.678 120.56 117.838 121.24 118.458 122.36C119.258 121.2 120.498 120.56 122.038 120.56ZM140.312 120.56C142.632 120.56 144.132 122.08 144.132 124.38V131H141.892V125.04C141.892 123.64 141.012 122.72 139.632 122.72C138.192 122.72 137.212 123.66 137.212 125.08V131H134.972V125.04C134.972 123.64 134.092 122.72 132.712 122.72C131.272 122.72 130.292 123.66 130.292 125.08V131H128.052V120.8H130.292V122C131.052 121.06 132.132 120.56 133.452 120.56C134.952 120.56 136.112 121.24 136.732 122.36C137.532 121.2 138.772 120.56 140.312 120.56ZM156.446 125.92C156.446 126.2 156.426 126.52 156.386 126.8H148.126C148.486 128.26 149.746 129.22 151.406 129.22C152.746 129.22 153.886 128.58 154.466 127.82L155.986 129.12C154.946 130.42 153.266 131.24 151.346 131.24C148.106 131.24 145.706 128.92 145.706 125.86C145.706 122.84 148.026 120.56 151.086 120.56C154.146 120.56 156.446 122.84 156.446 125.92ZM151.066 122.58C149.606 122.58 148.466 123.54 148.106 124.96H154.046C153.706 123.52 152.526 122.58 151.066 122.58ZM163.777 120.56C166.197 120.56 167.817 122.16 167.817 124.58V131H165.577V125.32C165.577 123.76 164.577 122.72 163.037 122.72C161.417 122.72 160.337 123.78 160.337 125.36V131H158.097V120.8H160.337V122.12C161.157 121.1 162.337 120.56 163.777 120.56ZM178.024 116.6H180.264V131H178.024V129.54C177.184 130.6 175.944 131.24 174.444 131.24C171.564 131.24 169.424 128.94 169.424 125.9C169.424 122.86 171.564 120.56 174.444 120.56C175.944 120.56 177.184 121.2 178.024 122.26V116.6ZM174.884 129.08C176.684 129.08 178.024 127.7 178.024 125.9C178.024 124.1 176.684 122.72 174.884 122.72C173.064 122.72 171.724 124.1 171.724 125.9C171.724 127.7 173.064 129.08 174.884 129.08ZM192.753 125.92C192.753 126.2 192.733 126.52 192.693 126.8H184.433C184.793 128.26 186.053 129.22 187.713 129.22C189.053 129.22 190.193 128.58 190.773 127.82L192.293 129.12C191.253 130.42 189.573 131.24 187.653 131.24C184.413 131.24 182.013 128.92 182.013 125.86C182.013 122.84 184.333 120.56 187.393 120.56C190.453 120.56 192.753 122.84 192.753 125.92ZM187.373 122.58C185.913 122.58 184.773 123.54 184.413 124.96H190.353C190.013 123.52 188.833 122.58 187.373 122.58ZM202.424 116.6H204.664V131H202.424V129.54C201.584 130.6 200.344 131.24 198.844 131.24C195.964 131.24 193.824 128.94 193.824 125.9C193.824 122.86 195.964 120.56 198.844 120.56C200.344 120.56 201.584 121.2 202.424 122.26V116.6ZM199.284 129.08C201.084 129.08 202.424 127.7 202.424 125.9C202.424 124.1 201.084 122.72 199.284 122.72C197.464 122.72 196.124 124.1 196.124 125.9C196.124 127.7 197.464 129.08 199.284 129.08Z" fill="#344054"/>
</svg>
